<svg width="8.000000" height="17.000000" viewBox="0 0 8 17" fill="none" xmlns="http://www.w3.org/2000/svg" xmlns:xlink="http://www.w3.org/1999/xlink">
	<desc>
			Created with Pixso.
	</desc>
	<defs>
		<clipPath id="clip0_218">
			<rect id="youtube" rx="-0.500000" width="7.000000" height="16.000000" transform="translate(0.500000 0.500000)" fill="white" fill-opacity="0"/>
		</clipPath>
	</defs>
	<rect id="youtube" rx="-0.500000" width="7.000000" height="16.000000" transform="translate(0.500000 0.500000)" fill="#FFFFFF" fill-opacity="0"/>
	<g clip-path="url(#clip0_218)">
		<path id="Vector" d="M1.71 3.3L1.71 5.62L0 5.62L0 8.48L1.72 8.48L1.72 16.99L5.29 16.99L5.29 8.48L7.68 8.48C7.68 8.48 7.91 7.12 8.02 5.62L5.31 5.62L5.31 3.66C5.31 3.36 5.69 2.96 6.07 2.96L8.02 2.96L8.02 0L5.38 0C1.65 0 1.72 2.86 1.72 3.3L1.71 3.3Z" fill="#BBBBBB" fill-opacity="1.000000" fill-rule="nonzero"/>
	</g>
</svg>
