<svg width="26.200195" height="18.200012" viewBox="0 0 26.2002 18.2" fill="none" xmlns="http://www.w3.org/2000/svg" xmlns:xlink="http://www.w3.org/1999/xlink">
	<desc>
			Created with Pixso.
	</desc>
	<defs/>
	<path id="Vector" d="M24.8 0.31L9.27 16.2L1.39 8.15C1.09 7.84 0.6 7.85 0.31 8.16C0.02 8.47 0.02 8.95 0.31 9.25L8.73 17.87C9.03 18.17 9.51 18.17 9.81 17.87L25.88 1.42C26.17 1.11 26.17 0.62 25.86 0.31C25.56 0.02 25.09 0.02 24.8 0.31Z" fill="#E3AA55" fill-opacity="1.000000" fill-rule="nonzero"/>
	<path id="Vector" d="M9.27 16.2L1.39 8.15C1.09 7.84 0.6 7.85 0.31 8.16C0.02 8.47 0.02 8.95 0.31 9.25L8.73 17.87C9.03 18.17 9.51 18.17 9.81 17.87L25.88 1.42C26.17 1.11 26.17 0.62 25.86 0.31C25.56 0.02 25.09 0.02 24.8 0.31L9.27 16.2Z" stroke="#E3AA55" stroke-opacity="1.000000" stroke-width="0.200000"/>
</svg>
