<svg width="41.000000" height="41.000000" viewBox="0 0 41 41" fill="none" xmlns="http://www.w3.org/2000/svg" xmlns:xlink="http://www.w3.org/1999/xlink">
	<desc>
			Created with Pixso.
	</desc>
	<defs/>
	<path id="Vector" d="M24.14 22.33C23.26 22.33 22.47 22.73 21.95 23.36L18.54 21.44C18.64 21.14 18.7 20.83 18.7 20.5C18.7 20.16 18.64 19.85 18.54 19.55L21.95 17.63C22.47 18.26 23.26 18.66 24.14 18.66C25.71 18.66 27 17.39 27 15.82C27 14.26 25.72 13 24.14 13C22.57 13 21.29 14.26 21.29 15.82C21.29 16.16 21.35 16.47 21.45 16.77L18.04 18.69C17.52 18.06 16.73 17.67 15.85 17.67C14.28 17.67 13 18.93 13 20.5C13 22.06 14.28 23.33 15.85 23.33C16.73 23.33 17.52 22.93 18.04 22.3L21.45 24.22C21.35 24.52 21.29 24.83 21.29 25.17C21.29 26.73 22.57 28 24.14 28C25.72 28 27 26.73 27 25.17C27 23.6 25.72 22.33 24.14 22.33ZM24.14 13.99C25.16 13.99 26 14.81 26 15.82C26 16.84 25.16 17.67 24.14 17.67C23.12 17.67 22.29 16.84 22.29 15.82C22.29 14.81 23.12 13.99 24.14 13.99ZM15.85 22.33C14.83 22.33 13.99 21.51 13.99 20.5C13.99 19.48 14.83 18.66 15.85 18.66C16.87 18.66 17.7 19.48 17.7 20.5C17.7 21.51 16.87 22.33 15.85 22.33ZM24.14 27C23.12 27 22.29 26.18 22.29 25.17C22.29 24.15 23.12 23.33 24.14 23.33C25.16 23.33 26 24.15 26 25.17C26 26.18 25.16 27 24.14 27Z" fill="#999999" fill-opacity="1.000000" fill-rule="nonzero"/>
	<path id="Vector" d="M21.95 23.36L18.54 21.44C18.64 21.14 18.7 20.83 18.7 20.5C18.7 20.16 18.64 19.85 18.54 19.55L21.95 17.63C22.47 18.26 23.26 18.66 24.14 18.66C25.71 18.66 27 17.39 27 15.82C27 14.26 25.72 13 24.14 13C22.57 13 21.29 14.26 21.29 15.82C21.29 16.16 21.35 16.47 21.45 16.77L18.04 18.69C17.52 18.06 16.73 17.67 15.85 17.67C14.28 17.67 13 18.93 13 20.5C13 22.06 14.28 23.33 15.85 23.33C16.73 23.33 17.52 22.93 18.04 22.3L21.45 24.22C21.35 24.52 21.29 24.83 21.29 25.17C21.29 26.73 22.57 28 24.14 28C25.72 28 27 26.73 27 25.17C27 23.6 25.72 22.33 24.14 22.33C23.26 22.33 22.47 22.73 21.95 23.36ZM26 15.82C26 16.84 25.16 17.67 24.14 17.67C23.12 17.67 22.29 16.84 22.29 15.82C22.29 14.81 23.12 13.99 24.14 13.99C25.16 13.99 26 14.81 26 15.82ZM13.99 20.5C13.99 19.48 14.83 18.66 15.85 18.66C16.87 18.66 17.7 19.48 17.7 20.5C17.7 21.51 16.87 22.33 15.85 22.33C14.83 22.33 13.99 21.51 13.99 20.5ZM22.29 25.17C22.29 24.15 23.12 23.33 24.14 23.33C25.16 23.33 26 24.15 26 25.17C26 26.18 25.16 27 24.14 27C23.12 27 22.29 26.18 22.29 25.17Z" stroke="#BBBBBB" stroke-opacity="1.000000" stroke-width="0.400000"/>
	<rect id="Rectangle 113" x="0.500000" y="0.500000" rx="20.000000" width="40.000000" height="40.000000" stroke="#E0E0E0" stroke-opacity="1.000000" stroke-width="1.000000"/>
</svg>
