<svg width="20.000000" height="19.000000" viewBox="0 0 20 19" fill="none" xmlns="http://www.w3.org/2000/svg" xmlns:xlink="http://www.w3.org/1999/xlink">
	<desc>
			Created with Pixso.
	</desc>
	<defs>
		<clipPath id="clip0_222">
			<rect id="inst 1" rx="-0.500000" width="19.000000" height="18.000000" transform="translate(0.500000 0.500000)" fill="white" fill-opacity="0"/>
		</clipPath>
	</defs>
	<rect id="inst 1" rx="-0.500000" width="19.000000" height="18.000000" transform="translate(0.500000 0.500000)" fill="#FFFFFF" fill-opacity="0"/>
	<g clip-path="url(#clip0_222)">
		<path id="Vector" d="M10 0C12.71 0 13.05 0.02 14.12 0.06C15.19 0.11 15.92 0.27 16.54 0.51C17.2 0.73 17.8 1.1 18.31 1.58C18.81 2.05 19.21 2.63 19.48 3.28C19.72 3.88 19.89 4.58 19.93 5.58C19.99 6.6 20 6.91 20 9.5C20 12.08 19.99 12.39 19.93 13.41C19.92 14.2 19.76 14.98 19.48 15.72C19.21 16.36 18.81 16.94 18.31 17.42C17.8 17.9 17.2 18.26 16.54 18.5C15.76 18.77 14.94 18.92 14.12 18.93C13.05 18.98 12.72 19 10 19C7.28 19 6.94 18.98 5.87 18.93C5.04 18.92 4.22 18.77 3.43 18.5C2.78 18.26 2.18 17.9 1.68 17.42C1.18 16.94 0.78 16.36 0.52 15.72C0.27 15.11 0.1 14.41 0.05 13.41C-0.01 12.11 -0.04 10.8 -0.02 9.5C-0.02 6.91 0.01 6.6 0.05 5.59C0.1 4.58 0.27 3.88 0.52 3.29C0.78 2.64 1.18 2.06 1.68 1.58C2.19 1.1 2.79 0.73 3.44 0.51C4.22 0.23 5.04 0.07 5.87 0.06C7.24 0 8.62 -0.02 10 0.01L10 0ZM9.09 1.71C7.23 1.71 6.88 1.72 5.95 1.77C4.97 1.81 4.46 1.96 4.09 2.1C3.63 2.27 3.3 2.46 2.94 2.8C2.59 3.13 2.38 3.45 2.19 3.89C2.06 4.22 1.9 4.73 1.84 5.65C1.81 6.65 1.8 6.95 1.8 9.5C1.8 12.03 1.8 12.33 1.84 13.33C1.9 14.26 2.06 14.76 2.19 15.1C2.38 15.54 2.59 15.86 2.94 16.18C3.3 16.52 3.63 16.73 4.09 16.89C4.45 17.03 4.97 17.18 5.95 17.23C7.01 17.27 7.33 17.28 10 17.28C12.67 17.28 12.99 17.27 14.04 17.23C15.02 17.17 15.54 17.03 15.9 16.89C16.37 16.73 16.7 16.52 17.04 16.18C17.4 15.86 17.62 15.54 17.79 15.09C17.93 14.76 18.1 14.26 18.14 13.33C18.19 12.33 18.2 12.03 18.2 9.5C18.2 6.96 18.19 6.66 18.14 5.65C18.13 5.05 18.01 4.46 17.79 3.89C17.62 3.45 17.4 3.13 17.04 2.81C16.72 2.49 16.33 2.24 15.9 2.1C15.3 1.88 14.67 1.77 14.04 1.77C12.69 1.71 11.34 1.7 10 1.71L9.09 1.71ZM15.34 3.29C16 3.29 16.54 3.8 16.54 4.42C16.54 5.06 16 5.57 15.34 5.57C14.68 5.57 14.14 5.07 14.14 4.42C14.14 3.8 14.68 3.29 15.34 3.29ZM10 4.62C11.32 4.59 12.61 5.08 13.57 6C14.54 6.91 15.1 8.17 15.14 9.5C15.14 12.2 12.84 14.37 10 14.37C9.34 14.39 8.68 14.28 8.07 14.04C7.45 13.81 6.89 13.45 6.41 13C5.94 12.55 5.55 12 5.29 11.4C5.02 10.8 4.87 10.15 4.85 9.5C4.85 6.8 7.16 4.62 10 4.62ZM6.66 9.5C6.66 11.25 8.16 12.66 10 12.66C10.42 12.68 10.85 12.6 11.25 12.45C11.64 12.29 12.01 12.06 12.32 11.77C12.63 11.48 12.87 11.12 13.05 10.73C13.22 10.34 13.31 9.92 13.33 9.5C13.33 7.75 11.84 6.34 10 6.34C9.57 6.32 9.14 6.4 8.74 6.55C8.35 6.7 7.98 6.93 7.67 7.22C7.36 7.52 7.11 7.87 6.94 8.26C6.76 8.65 6.67 9.07 6.66 9.5Z" fill="#BBBBBB" fill-opacity="1.000000" fill-rule="nonzero"/>
	</g>
</svg>
