<svg width="33.000000" height="20.000000" viewBox="0 0 33 20" fill="none" xmlns="http://www.w3.org/2000/svg" xmlns:xlink="http://www.w3.org/1999/xlink">
	<desc>
			Created with Pixso.
	</desc>
	<defs>
		<clipPath id="clip0_655">
			<rect id="mastercard2" rx="-0.500000" width="32.000000" height="19.000000" transform="translate(0.500000 0.500000)" fill="white" fill-opacity="0"/>
		</clipPath>
	</defs>
	<rect id="mastercard2" rx="-0.500000" width="32.000000" height="19.000000" transform="translate(0.500000 0.500000)" fill="#FFFFFF" fill-opacity="0"/>
	<g clip-path="url(#clip0_655)">
		<path id="Vector" d="M20.71 17.58L11.89 17.58L11.89 2.1L20.71 2.1L20.71 17.58Z" fill="#FF5F00" fill-opacity="1.000000" fill-rule="nonzero"/>
		<path id="Vector" d="M12.45 9.84C12.45 6.7 13.96 3.9 16.3 2.1C14.59 0.78 12.43 0 10.08 0C4.51 0 0 4.4 0 9.84C0 15.28 4.51 19.69 10.08 19.69C12.43 19.69 14.59 18.9 16.3 17.58C13.96 15.78 12.45 12.98 12.45 9.84Z" fill="#EB001B" fill-opacity="1.000000" fill-rule="nonzero"/>
		<path id="Vector" d="M32.61 9.84C32.61 15.28 28.09 19.69 22.53 19.69C20.17 19.69 18.01 18.9 16.3 17.58C18.64 15.78 20.15 12.98 20.15 9.84C20.15 6.7 18.64 3.9 16.3 2.1C18.01 0.78 20.17 0 22.53 0C28.09 0 32.61 4.4 32.61 9.84Z" fill="#F79E1B" fill-opacity="1.000000" fill-rule="nonzero"/>
	</g>
</svg>
