<svg width="15.165771" height="27.907104" viewBox="0 0 15.1658 27.9071" fill="none" xmlns="http://www.w3.org/2000/svg" xmlns:xlink="http://www.w3.org/1999/xlink">
	<desc>
			Created with Pixso.
	</desc>
	<defs/>
	<path id="Vector" d="M14.66 26.69C14.66 26.51 14.59 26.33 14.45 26.19L2.2 13.94L14.45 1.7C14.73 1.41 14.72 0.97 14.44 0.69C14.16 0.43 13.73 0.43 13.45 0.69L0.7 13.44C0.43 13.72 0.43 14.17 0.7 14.45L13.45 27.2C13.73 27.47 14.18 27.47 14.45 27.19C14.59 27.06 14.66 26.88 14.66 26.69Z" fill="#666666" fill-opacity="1.000000" fill-rule="nonzero"/>
	<path id="Vector" d="M14.45 26.19L2.2 13.94L14.45 1.7C14.73 1.41 14.72 0.97 14.44 0.69C14.16 0.43 13.73 0.43 13.45 0.69L0.7 13.44C0.43 13.72 0.43 14.17 0.7 14.45L13.45 27.2C13.73 27.47 14.18 27.47 14.45 27.19C14.59 27.06 14.66 26.88 14.66 26.69C14.66 26.51 14.59 26.33 14.45 26.19Z" stroke="#666666" stroke-opacity="1.000000" stroke-width="1.000000"/>
</svg>
