<svg width="38.000000" height="10.000000" viewBox="0 0 38 10" fill="none" xmlns="http://www.w3.org/2000/svg" xmlns:xlink="http://www.w3.org/1999/xlink">
	<desc>
			Created with Pixso.
	</desc>
	<defs>
		<clipPath id="clip0_643">
			<rect id="Mir 2" rx="-0.500000" width="37.000000" height="9.000000" transform="translate(0.500000 0.500000)" fill="white" fill-opacity="0"/>
		</clipPath>
		<linearGradient x1="26.971680" y1="2.005075" x2="37.987518" y2="2.005075" id="paint_linear_0_645_0" gradientUnits="userSpaceOnUse">
			<stop stop-color="#00A0E5"/>
			<stop offset="1.000000" stop-color="#0077C3"/>
		</linearGradient>
	</defs>
	<rect id="Mir 2" rx="-0.500000" width="37.000000" height="9.000000" transform="translate(0.500000 0.500000)" fill="#FFFFFF" fill-opacity="0"/>
	<g clip-path="url(#clip0_643)">
		<path id="Vector" d="M27.4 4.51L27.4 10L30.68 10L30.68 6.75L34.39 6.75C35.95 6.74 37.28 5.81 37.78 4.51L27.4 4.51Z" fill="#37A72E" fill-opacity="1.000000" fill-rule="evenodd"/>
		<path id="Vector" d="M26.97 0C27.16 2.24 29.44 4.01 32.22 4.01C32.23 4.01 37.92 4.01 37.92 4.01C37.96 3.8 37.98 3.59 37.98 3.37C37.98 1.51 36.37 0.01 34.38 9.15e-5L26.97 0Z" fill="url(#paint_linear_0_645_0)" fill-opacity="1.000000" fill-rule="evenodd"/>
		<path id="Vector" d="M22.12 3.95L22.12 3.95L22.12 3.95C22.15 3.89 22.22 3.85 22.29 3.85C22.4 3.85 22.49 3.93 22.49 4.03L22.49 4.03L22.49 9.94L25.77 9.94L25.77 0L22.49 0C22.07 0.01 21.6 0.29 21.43 0.64L18.82 5.84C18.82 5.86 18.81 5.88 18.79 5.9L18.79 5.9L18.79 5.9C18.75 5.95 18.69 5.98 18.61 5.98C18.49 5.98 18.39 5.89 18.39 5.78L18.39 0L15.12 0L15.12 9.94L18.39 9.94L18.39 9.94C18.81 9.92 19.26 9.64 19.44 9.3L22.11 3.97C22.11 3.96 22.12 3.96 22.12 3.95Z" fill="#37A72E" fill-opacity="1.000000" fill-rule="evenodd"/>
		<path id="Vector" d="M9.89 4.12L7.97 9.94L5.61 9.94L3.7 4.12C3.68 4.03 3.59 3.95 3.49 3.95C3.37 3.95 3.27 4.04 3.27 4.15C3.27 4.16 3.27 4.16 3.27 4.16L3.27 9.94L0 9.94L0 0L2.81 0L3.64 0C4.25 0 4.88 0.43 5.05 0.97L6.65 5.81C6.73 6.06 6.86 6.05 6.94 5.81L8.53 0.97C8.71 0.43 9.34 0 9.94 0L10.78 0L13.59 0L13.59 9.94L10.31 9.94L10.31 4.16C10.31 4.16 10.31 4.16 10.31 4.15C10.31 4.04 10.22 3.95 10.1 3.95C9.99 3.95 9.9 4.03 9.89 4.12Z" fill="#37A72E" fill-opacity="1.000000" fill-rule="evenodd"/>
	</g>
</svg>
