<svg width="138.000000" height="34.000000" viewBox="0 0 138 34" fill="none" xmlns="http://www.w3.org/2000/svg" xmlns:xlink="http://www.w3.org/1999/xlink">
	<desc>
			Created with Pixso.
	</desc>
	<defs>
		<clipPath id="clip0_29">
			<rect id="MTS_logo_2015 1" rx="-0.500000" width="137.000000" height="33.000000" transform="translate(0.500000 0.500000)" fill="white" fill-opacity="0"/>
		</clipPath>
	</defs>
	<rect id="MTS_logo_2015 1" rx="-0.500000" width="137.000000" height="33.000000" transform="translate(0.500000 0.500000)" fill="#FFFFFF" fill-opacity="0"/>
	<g clip-path="url(#clip0_29)">
		<path id="mts logo" d="M12.27 0C9.71 0 6.67 2.43 4.17 6.53C1.56 10.77 0 16.02 0 20.58C0 27.26 3.79 33.99 12.27 33.99C20.74 33.99 24.53 27.26 24.53 20.58C24.53 16.02 22.98 10.77 20.38 6.53C17.85 2.43 14.82 0 12.27 0ZM78.5 10.01L87.09 10.01L87.09 32.17L96.29 32.17L96.29 10.01L104.87 10.01L104.87 1.82L78.5 1.82L78.5 10.01L78.5 10.01ZM124.5 10.01L137.99 10.01L137.99 1.82L124.5 1.82C112.1 1.82 105.48 7.92 105.48 16.99C105.48 26.07 112.1 32.17 124.5 32.17L137.99 32.17L137.99 23.98L124.5 23.98C118.76 23.98 114.99 21.95 114.99 17C114.99 12.04 118.76 10.01 124.5 10.01ZM59.79 1.82L54.89 19.94L49.99 1.82L33.73 1.82L33.73 32.17L42.93 32.17L42.93 7.48L49.61 32.17L60.16 32.17L66.85 7.47L66.85 32.17L76.05 32.17L76.05 1.82L59.79 1.82Z" fill="#EB001B" fill-opacity="1.000000" fill-rule="evenodd"/>
	</g>
</svg>
