<svg width="8.000000" height="15.000000" viewBox="0 0 8 15" fill="none" xmlns="http://www.w3.org/2000/svg" xmlns:xlink="http://www.w3.org/1999/xlink">
	<desc>
			Created with Pixso.
	</desc>
	<defs/>
	<path id="Vector" d="M7.5 14.13C7.5 14.03 7.46 13.93 7.39 13.87L1.34 7.49L7.39 1.12C7.53 0.97 7.52 0.74 7.38 0.6C7.25 0.46 7.03 0.46 6.9 0.6L0.6 7.23C0.46 7.38 0.46 7.61 0.6 7.75L6.9 14.39C7.04 14.53 7.26 14.53 7.39 14.39C7.46 14.32 7.5 14.22 7.5 14.13Z" fill="#222222" fill-opacity="1.000000" fill-rule="nonzero"/>
	<path id="Vector" d="M7.39 13.87L1.34 7.49L7.39 1.12C7.53 0.97 7.52 0.74 7.38 0.6C7.25 0.46 7.03 0.46 6.9 0.6L0.6 7.23C0.46 7.38 0.46 7.61 0.6 7.75L6.9 14.39C7.04 14.53 7.26 14.53 7.39 14.39C7.46 14.32 7.5 14.22 7.5 14.13C7.5 14.03 7.46 13.93 7.39 13.87Z" stroke="#222222" stroke-opacity="1.000000" stroke-width="1.000000"/>
</svg>
