<svg width="22.567627" height="25.500000" viewBox="0 0 22.5676 25.5" fill="none" xmlns="http://www.w3.org/2000/svg" xmlns:xlink="http://www.w3.org/1999/xlink">
	<desc>
			Created with Pixso.
	</desc>
	<defs/>
	<path id="иконка" d="M0.28 25.25L2.73 5.74L7.38 5.74L7.38 4.12C7.38 1.98 9.13 0.25 11.28 0.25C13.43 0.25 15.17 1.98 15.17 4.12L15.17 5.74L19.78 5.75L22.28 25.25C22.28 25.25 21.75 25.25 21.54 25.25L1.02 25.25C0.8 25.25 0.28 25.25 0.28 25.25ZM13.7 4.12C13.7 2.79 12.61 1.71 11.28 1.71C9.94 1.71 8.86 2.79 8.86 4.12L8.86 5.74L13.7 5.74L13.7 4.12ZM20.7 23.78L18.53 7.2L15.17 7.2L15.17 8.82C15.17 9.23 14.84 9.56 14.44 9.56C14.03 9.56 13.7 9.23 13.7 8.82L13.7 7.2L8.86 7.2L8.86 8.82C8.86 9.23 8.53 9.56 8.12 9.56C7.71 9.56 7.38 9.23 7.38 8.82L7.38 7.2L4.03 7.2L1.85 23.78L20.7 23.78Z" fill="#FFFFFF" fill-opacity="1.000000" fill-rule="nonzero"/>
	<path id="иконка" d="M2.73 5.74L7.38 5.74L7.38 4.12C7.38 1.98 9.13 0.25 11.28 0.25C13.43 0.25 15.17 1.98 15.17 4.12L15.17 5.74L19.78 5.75L22.28 25.25C22.28 25.25 21.75 25.25 21.54 25.25L1.02 25.25C0.8 25.25 0.28 25.25 0.28 25.25L2.73 5.74ZM11.28 1.71C9.94 1.71 8.86 2.79 8.86 4.12L8.86 5.74L13.7 5.74L13.7 4.12C13.7 2.79 12.61 1.71 11.28 1.71ZM18.53 7.2L15.17 7.2L15.17 8.82C15.17 9.23 14.84 9.56 14.44 9.56C14.03 9.56 13.7 9.23 13.7 8.82L13.7 7.2L8.86 7.2L8.86 8.82C8.86 9.23 8.53 9.56 8.12 9.56C7.71 9.56 7.38 9.23 7.38 8.82L7.38 7.2L4.03 7.2L1.85 23.78L20.7 23.78L18.53 7.2Z" stroke="#FFFFFF" stroke-opacity="1.000000" stroke-width="0.500000"/>
</svg>
