<svg width="23.878174" height="22.900391" viewBox="0 0 23.8782 22.9004" fill="none" xmlns="http://www.w3.org/2000/svg" xmlns:xlink="http://www.w3.org/1999/xlink">
 <desc>
   Created with Pixso.
 </desc>
 <defs/>
 <path id="Vector" d="M0.44 12.79L2.63 10.61C2.83 10.41 3.13 10.31 3.43 10.39L3.43 0.2L23.67 0.2L23.67 0.75L23.67 19.3L23.67 20.14L12.44 20.14L12.44 22.7L12.42 22.7L9.08 22.43C8.91 22.39 8.76 22.31 8.65 22.19L6.59 20.14L3.43 20.14L3.43 19.3L3.43 16.98C1.58 15.13 0.6 14.15 0.44 13.99C0.11 13.66 0.11 13.12 0.44 12.79ZM21.98 18.45L21.98 1.9L5.12 1.9L5.12 11.91C5.34 12.12 11.46 18.24 11.67 18.45L21.98 18.45ZM9.66 20.82L10.9 21.07L10.65 19.83L5.42 14.59L4.42 15.58L9.66 20.82ZM3.23 14.38L4.22 13.39L3.68 12.85L3.68 12.85L3.23 12.4L2.24 13.39L3.23 14.38Z" fill="#FFFFFF" fill-opacity="1.000000" fill-rule="nonzero"/>
 <path id="Vector" d="M2.63 10.61C2.83 10.41 3.13 10.31 3.43 10.39L3.43 0.2L23.67 0.2L23.67 0.75L23.67 19.3L23.67 20.14L12.44 20.14L12.44 22.7L12.42 22.7L9.08 22.43C8.91 22.39 8.76 22.31 8.65 22.19L6.59 20.14L3.43 20.14L3.43 19.3L3.43 16.98C1.58 15.13 0.6 14.15 0.44 13.99C0.11 13.66 0.11 13.12 0.44 12.79L2.63 10.61ZM21.98 1.9L5.12 1.9L5.12 11.91C5.34 12.12 11.46 18.24 11.67 18.45L21.98 18.45L21.98 1.9ZM10.9 21.07L10.65 19.83L5.42 14.59L4.42 15.58L9.66 20.82L10.9 21.07ZM4.22 13.39L3.68 12.85L3.68 12.85L3.23 12.4L2.24 13.39L3.23 14.38L4.22 13.39Z" stroke="#FFFFFF" stroke-opacity="1.000000" stroke-width="0.400000"/>
 <path id="Rectangle 5" d="M9.89 5.2L18.7 5.2L18.7 7L9.89 7L9.89 5.2Z" fill="#FFFFFF" fill-opacity="1.000000" fill-rule="nonzero"/>
 <path id="Rectangle 6" d="M8.02 8.9L18.7 8.9L18.7 10.7L8.02 10.7L8.02 8.9Z" fill="#FFFFFF" fill-opacity="1.000000" fill-rule="nonzero"/>
 <path id="Rectangle 7" d="M10.02 12.7L18.7 12.7L18.7 14.5L10.02 14.5L10.02 12.7Z" fill="#FFFFFF" fill-opacity="1.000000" fill-rule="nonzero"/>
</svg>