<svg width="15.165771" height="27.907104" viewBox="0 0 15.1658 27.9071" fill="none" xmlns="http://www.w3.org/2000/svg" xmlns:xlink="http://www.w3.org/1999/xlink">
	<desc>
			Created with Pixso.
	</desc>
	<defs/>
	<path id="Vector" d="M0.5 26.69C0.49 26.51 0.57 26.33 0.7 26.19L12.95 13.94L0.7 1.7C0.43 1.41 0.44 0.97 0.72 0.69C0.99 0.43 1.43 0.43 1.7 0.69L14.45 13.44C14.73 13.72 14.73 14.17 14.45 14.45L1.7 27.2C1.43 27.47 0.98 27.47 0.7 27.19C0.57 27.06 0.5 26.88 0.5 26.69Z" fill="#666666" fill-opacity="1.000000" fill-rule="nonzero"/>
	<path id="Vector" d="M0.7 26.19L12.95 13.94L0.7 1.7C0.43 1.41 0.44 0.97 0.72 0.69C0.99 0.43 1.43 0.43 1.7 0.69L14.45 13.44C14.73 13.72 14.73 14.17 14.45 14.45L1.7 27.2C1.43 27.47 0.98 27.47 0.7 27.19C0.57 27.06 0.5 26.88 0.5 26.69C0.49 26.51 0.57 26.33 0.7 26.19Z" stroke="#666666" stroke-opacity="1.000000" stroke-width="1.000000"/>
</svg>
