<svg width="89.532471" height="115.002563" viewBox="0 0 89.5325 115.003" fill="none" xmlns="http://www.w3.org/2000/svg" xmlns:xlink="http://www.w3.org/1999/xlink">
	<desc>
			Created with Pixso.
	</desc>
	<defs>
		<filter id="filter_0_267_dd" x="1.427246" y="4.757935" width="88.105225" height="110.244629" filterUnits="userSpaceOnUse" color-interpolation-filters="sRGB">
			<feFlood flood-opacity="0" result="BackgroundImageFix"/>
			<feColorMatrix in="SourceAlpha" type="matrix" values="0 0 0 0 0 0 0 0 0 0 0 0 0 0 0 0 0 0 127 0" result="hardAlpha"/>
			<feOffset dx="0" dy="15"/>
			<feGaussianBlur stdDeviation="10"/>
			<feComposite in2="hardAlpha" operator="out" k2="-1" k3="1"/>
			<feColorMatrix type="matrix" values="0 0 0 0 0 0 0 0 0 0 0 0 0 0 0 0 0 0 1 0"/>
			<feBlend mode="normal" in2="BackgroundImageFix" result="effect_dropShadow_1"/>
			<feBlend mode="normal" in="SourceGraphic" in2="effect_dropShadow_1" result="shape"/>
		</filter>
		<linearGradient x1="57.601475" y1="20.061165" x2="31.437586" y2="70.007973" id="paint_linear_0_267_0" gradientUnits="userSpaceOnUse">
			<stop stop-color="#F9DF8B"/>
			<stop offset="1.000000" stop-color="#CFAC42"/>
		</linearGradient>
		<linearGradient x1="30.541666" y1="9.000000" x2="30.541666" y2="52.083332" id="paint_linear_0_270_0" gradientUnits="userSpaceOnUse">
			<stop stop-color="#FCBA5C"/>
			<stop offset="0.505208" stop-color="#EEAB59"/>
			<stop offset="1.000000" stop-color="#B27D44"/>
		</linearGradient>
	</defs>
	<g filter="url(#filter_0_267_dd)">
		<path id="Vector" d="M31.42 70C37.74 65.72 47.2 56.76 53.26 45.07C56.24 39.33 58.33 33.58 59.16 28.88C60.87 19.1 56.52 16.82 49.45 23.79C46.03 27.15 42.5 32.15 39.5 37.87C33.56 49.18 31.57 62.4 31.42 70ZM49.79 34.87C50.96 35.48 50.36 38.94 48.45 42.57C46.55 46.21 44.05 48.67 42.88 48.05C41.72 47.44 42.32 43.99 44.22 40.35C46.12 36.72 48.62 34.26 49.79 34.87Z" fill="url(#paint_linear_0_267_0)" fill-opacity="1.000000" fill-rule="nonzero"/>
	</g>
	<path id="Vector" d="M30.95 72C45.35 63.41 62.2 47.67 61.99 30.85C61.89 22.59 58.64 14.85 52.84 9.05C40.78 -3.02 21.19 -3.02 9.09 9.05C3.25 14.87 0.02 22.62 0 30.87C-0.05 47.18 17.4 63.32 30.95 72Z" fill="#181818" fill-opacity="1.000000" fill-rule="nonzero"/>
	<path id="Vector" d="M30.58 9C33.49 9 36.31 9.61 38.86 10.67C39.04 11.81 39.13 13.05 39.13 14.28C36.57 12.96 33.66 12.17 30.58 12.17C27.76 12.17 25.03 12.78 22.65 13.93C22.65 12.7 22.74 11.55 22.92 10.4C25.29 9.52 27.85 9 30.58 9ZM21.68 14.46C19.48 15.69 17.54 17.37 16.04 19.3C15.6 18.07 15.25 16.84 15.16 15.51C17.1 13.58 19.39 11.9 21.95 10.85C21.68 11.99 21.59 13.22 21.68 14.46ZM15.34 20.27C14.81 19.04 14.46 17.81 14.28 16.48C12.34 18.77 10.76 21.51 9.96 24.5C10.58 26.18 11.29 27.85 12.25 29.35C12.43 26 13.49 22.83 15.34 20.27ZM12.17 31.02C12.25 34.28 13.14 37.28 14.72 39.92C13.4 39.74 12.17 39.3 11.02 38.69C10.85 38.6 10.58 38.42 10.4 38.33C9.52 35.96 9 33.31 9 30.58C9 29.08 9.17 27.59 9.44 26.09C10.14 27.85 11.11 29.44 12.17 31.02ZM15.34 40.98C13.84 40.89 12.34 40.45 11.02 39.83C12.25 42.47 14.02 44.77 16.13 46.7C16.57 46.79 16.92 46.88 17.28 46.97C19.3 47.59 21.51 47.76 23.71 47.59C20.27 46.26 17.45 43.88 15.34 40.98ZM25.74 48.29C27.23 48.73 28.91 48.91 30.58 48.91C32.34 48.91 34.02 48.64 35.69 48.2C38.07 48.73 40.45 48.73 42.74 48.38C39.3 50.76 35.07 52.08 30.58 52.08C26 52.08 21.68 50.67 18.25 48.2C20.62 48.73 23.18 48.82 25.74 48.29ZM39.92 11.11C42.48 12.34 44.68 14.02 46.53 16.13C46.35 17.37 46 18.69 45.47 19.83C44.06 17.81 42.21 16.04 40.01 14.81C40.1 13.58 40.1 12.34 39.92 11.11ZM47.41 17.1C47.14 18.33 46.79 19.66 46.18 20.8C47.85 23.53 48.91 26.79 48.99 30.23C50.05 28.73 50.84 27.14 51.55 25.47C50.76 22.3 49.35 19.48 47.41 17.1ZM51.81 27.06C51.99 28.2 52.08 29.35 52.08 30.49C52.08 33.4 51.46 36.22 50.4 38.69C49.17 39.39 47.76 39.83 46.26 39.92C47.67 37.54 48.64 34.81 48.82 31.9C50.05 30.4 51.02 28.82 51.81 27.06ZM49.88 40.18C48.55 42.83 46.79 45.12 44.59 46.97L44.5 46.97C42.3 47.59 39.92 47.85 37.63 47.59C40.98 46.26 43.8 43.88 45.73 40.98C47.14 40.98 48.55 40.71 49.88 40.18Z" fill="url(#paint_linear_0_270_0)" fill-opacity="1.000000" fill-rule="evenodd"/>
	<path id="Vector" d="M35.49 19.87C34.9 19.87 34.43 20.35 34.43 20.93C34.43 21.29 34.6 21.6 34.87 21.8L34.15 22.54C33.83 22.88 33.39 23.07 32.92 23.07C32.44 23.07 32 22.88 31.68 22.54L30.96 21.8C31.23 21.61 31.41 21.29 31.41 20.93C31.41 20.35 30.93 19.87 30.35 19.87C29.77 19.87 29.29 20.35 29.29 20.93C29.29 21.28 29.45 21.58 29.71 21.78L28.97 22.54C28.64 22.88 28.2 23.07 27.73 23.07C27.26 23.07 26.82 22.88 26.49 22.54L25.78 21.8C26.05 21.61 26.23 21.29 26.23 20.93C26.23 20.35 25.75 19.87 25.17 19.87C24.58 19.87 24.11 20.35 24.11 20.93C24.11 21.38 24.38 21.76 24.78 21.92L24.78 24.42L35.87 24.42L35.87 24.42L35.87 21.92C36.27 21.77 36.55 21.38 36.55 20.93C36.55 20.35 36.07 19.87 35.49 19.87Z" fill="#FAB85B" fill-opacity="1.000000" fill-rule="nonzero"/>
	<path id="Vector" d="M24.78 24.31L24.78 25.39C24.78 25.59 24.94 25.75 25.14 25.75L35.51 25.75C35.71 25.75 35.87 25.59 35.87 25.39L35.87 24.31L24.78 24.31Z" fill="#FAB85B" fill-opacity="1.000000" fill-rule="nonzero"/>
	<path id="VIP" d="M22.4 40.55L24.1 40.55L27.95 29.06L26.02 29.06L23.29 37.69L20.55 29.06L18.57 29.06L22.4 40.55ZM29.63 40.48L31.47 40.48L31.47 29.06L29.63 29.06L29.63 40.48ZM35.85 40.48L34.02 40.48L34.02 29.06L37.56 29.06C39.99 29.06 41.55 30.5 41.55 32.88C41.55 35.42 39.75 36.78 37.43 36.78L35.85 36.78L35.85 40.48ZM35.85 30.77L35.85 35.07L37.48 35.07C38.85 35.07 39.7 34.23 39.7 32.93C39.7 31.49 38.83 30.77 37.5 30.77L35.85 30.77Z" fill="#FAB85B" fill-opacity="1.000000" fill-rule="evenodd"/>
</svg>
