<svg width="35.000000" height="11.000000" viewBox="0 0 35 11" fill="none" xmlns="http://www.w3.org/2000/svg" xmlns:xlink="http://www.w3.org/1999/xlink">
	<desc>
			Created with Pixso.
	</desc>
	<defs>
		<clipPath id="clip0_648">
			<rect id="Visa 2" rx="-0.500000" width="34.000000" height="10.000000" transform="translate(0.500000 0.500000)" fill="white" fill-opacity="0"/>
		</clipPath>
	</defs>
	<rect id="Visa 2" rx="-0.500000" width="34.000000" height="10.000000" transform="translate(0.500000 0.500000)" fill="#FFFFFF" fill-opacity="0"/>
	<g clip-path="url(#clip0_648)">
		<path id="Vector" d="M15.16 10.83L12.33 10.83L14.1 0.19L16.93 0.19L15.16 10.83Z" fill="#00579F" fill-opacity="1.000000" fill-rule="nonzero"/>
		<path id="Vector" d="M25.44 0.45C24.88 0.23 23.99 0 22.9 0C20.1 0 18.13 1.44 18.11 3.52C18.09 5.05 19.52 5.9 20.6 6.41C21.7 6.93 22.07 7.27 22.07 7.73C22.06 8.45 21.18 8.77 20.37 8.77C19.23 8.77 18.63 8.6 17.7 8.21L17.33 8.04L16.93 10.43C17.6 10.72 18.83 10.98 20.1 11C23.07 11 25.01 9.57 25.03 7.36C25.04 6.15 24.29 5.22 22.65 4.46C21.66 3.97 21.05 3.64 21.05 3.14C21.06 2.69 21.57 2.23 22.69 2.23C23.61 2.2 24.29 2.42 24.8 2.63L25.05 2.75L25.44 0.45Z" fill="#00579F" fill-opacity="1.000000" fill-rule="nonzero"/>
		<path id="Vector" d="M29.21 7.06C29.44 6.45 30.34 4.08 30.34 4.08C30.33 4.11 30.57 3.46 30.71 3.06L30.91 3.98C30.91 3.98 31.45 6.53 31.56 7.06C31.12 7.06 29.77 7.06 29.21 7.06ZM32.71 0.19L30.51 0.19C29.84 0.19 29.32 0.38 29.03 1.07L24.82 10.83L27.8 10.83C27.8 10.83 28.29 9.52 28.39 9.24C28.72 9.24 31.61 9.24 32.03 9.24C32.11 9.61 32.37 10.83 32.37 10.83L35 10.83L32.71 0.19Z" fill="#00579F" fill-opacity="1.000000" fill-rule="nonzero"/>
		<path id="Vector" d="M9.96 0.19L7.18 7.45L6.88 5.97C6.37 4.28 4.75 2.43 2.96 1.51L5.5 10.82L8.5 10.82L12.96 0.19L9.96 0.19Z" fill="#00579F" fill-opacity="1.000000" fill-rule="nonzero"/>
		<path id="Vector" d="M4.6 0.19L0.04 0.19L0 0.4C3.55 1.29 5.91 3.42 6.88 5.98L5.89 1.08C5.72 0.4 5.22 0.21 4.6 0.19Z" fill="#FAA61A" fill-opacity="1.000000" fill-rule="nonzero"/>
	</g>
</svg>
