<svg width="23.000000" height="13.000000" viewBox="0 0 23 13" fill="none" xmlns="http://www.w3.org/2000/svg" xmlns:xlink="http://www.w3.org/1999/xlink">
	<desc>
			Created with Pixso.
	</desc>
	<defs>
		<clipPath id="clip0_226">
			<rect id="vk 1" rx="-0.500000" width="22.000000" height="12.000000" transform="translate(0.500000 0.500000)" fill="white" fill-opacity="0"/>
		</clipPath>
	</defs>
	<rect id="vk 1" rx="-0.500000" width="22.000000" height="12.000000" transform="translate(0.500000 0.500000)" fill="#FFFFFF" fill-opacity="0"/>
	<g clip-path="url(#clip0_226)">
		<path id="Vector" d="M22.88 11.73L22.8 11.58C22.4 10.87 21.64 9.99 20.51 8.96L20.49 8.94L20.48 8.92L20.45 8.92C19.95 8.43 19.62 8.11 19.48 7.94C19.24 7.62 19.17 7.3 19.31 6.98C19.41 6.74 19.77 6.22 20.39 5.43L21.17 4.42C22.55 2.6 23.15 1.44 22.97 0.94L22.9 0.82C22.85 0.75 22.73 0.68 22.53 0.62C22.33 0.56 22.07 0.55 21.76 0.59L18.31 0.62C18.23 0.6 18.14 0.6 18.06 0.62L17.92 0.66L17.86 0.69L17.81 0.72C17.75 0.76 17.71 0.8 17.68 0.85C17.63 0.92 17.59 0.98 17.56 1.05C17.01 2.45 16.31 3.77 15.46 5C15.17 5.47 14.81 5.87 14.38 6.2C14.25 6.3 14.14 6.34 14.08 6.33L13.87 6.28C13.75 6.21 13.66 6.11 13.6 5.99C13.52 5.85 13.47 5.7 13.46 5.53C13.4 5.19 13.39 4.84 13.42 4.48L13.43 3.98L13.45 3L13.48 2.17L13.5 1.52C13.5 1.29 13.48 1.11 13.45 0.98C13.42 0.85 13.38 0.73 13.33 0.6C13.27 0.48 13.19 0.38 13.08 0.31C12.95 0.24 12.82 0.19 12.68 0.15C12.26 0.06 11.72 0.01 11.06 0C9.57 -0.02 8.63 0.08 8.19 0.28C8.03 0.38 7.88 0.49 7.75 0.64C7.59 0.81 7.57 0.91 7.68 0.92C8.16 1 8.51 1.17 8.7 1.43L8.78 1.58C8.83 1.68 8.88 1.86 8.94 2.12C9.16 3.41 9.11 4.72 8.78 5.98C8.73 6.08 8.68 6.17 8.63 6.25C8.61 6.28 8.59 6.3 8.56 6.31C8.46 6.35 8.35 6.37 8.25 6.36C8.1 6.35 7.96 6.3 7.84 6.2C7.66 6.07 7.49 5.92 7.34 5.74C7.13 5.49 6.94 5.22 6.77 4.93C6.55 4.58 6.32 4.17 6.09 3.7L5.9 3.35C5.52 2.64 5.17 1.91 4.85 1.16C4.8 1.01 4.7 0.88 4.56 0.78L4.51 0.75C4.36 0.66 4.2 0.6 4.04 0.57L0.77 0.59C0.43 0.59 0.19 0.67 0.07 0.82L0.04 0.89C0.01 0.95 -0.01 1.02 0 1.08C0 1.17 0.01 1.28 0.06 1.4C0.91 3.39 1.93 5.31 3.09 7.12C3.84 8.25 4.66 9.33 5.56 10.34L5.85 10.63C6.04 10.82 6.32 11.05 6.69 11.31C7.06 11.58 7.48 11.84 7.93 12.09C8.94 12.66 10.09 12.94 11.26 12.92L12.63 12.92C12.91 12.89 13.13 12.81 13.27 12.66L13.31 12.6C13.4 12.43 13.45 12.25 13.45 12.05C13.43 11.71 13.47 11.41 13.53 11.13C13.59 10.86 13.65 10.65 13.73 10.52C13.84 10.32 13.99 10.14 14.18 10C14.22 9.99 14.25 9.97 14.29 9.95C14.48 9.89 14.7 9.95 14.96 10.14C15.22 10.32 15.46 10.55 15.68 10.83C15.91 11.1 16.19 11.4 16.51 11.74C16.83 12.08 17.11 12.34 17.35 12.5L17.59 12.65C17.75 12.74 17.95 12.83 18.2 12.91C18.46 12.98 18.69 13.01 18.89 12.96L21.95 12.92C22.25 12.92 22.49 12.87 22.65 12.77C22.83 12.67 22.91 12.57 22.95 12.45C22.98 12.31 22.98 12.18 22.96 12.04C22.94 11.94 22.91 11.83 22.88 11.73Z" fill="#BBBBBB" fill-opacity="1.000000" fill-rule="nonzero"/>
	</g>
</svg>
